<svg width="667" height="748" viewBox="0 0 667 748" fill="none" xmlns="http://www.w3.org/2000/svg">
<path d="M9 542.75V247.75C9 235.75 15 224.75 25 217.75L303 18.75C321 5.75 345 5.75 363 18.75L641 217.75C652 225.75 658 237.75 658 250.75V542.75C658 555.75 651 567.75 640 574.75L398 726.75C386 734.75 372 738.75 358 738.75H280C264 738.75 249 733.75 236 724.75L24 574.75C15 567.75 9 555.75 9 542.75Z" fill="white"/>
<path d="M16 248.75C36 265.75 70 289.75 89 275.75L299 126.75C318 113.75 343 113.75 362 127.75L577 284.75C591 294.75 599 310.75 599 327.75V479.75C599 499.75 589 517.75 572 527.75L351 657.75C338 665.75 330 679.75 330 694.75V735.75" stroke="#079C9A" stroke-width="18" stroke-linecap="round" stroke-linejoin="round"/>
<path d="M9 542.75V247.75C9 235.75 15 224.75 25 217.75L303 18.75C321 5.75 345 5.75 363 18.75L641 217.75C652 225.75 658 237.75 658 250.75V542.75C658 555.75 651 567.75 640 574.75L398 726.75C386 734.75 372 738.75 358 738.75H280C264 738.75 249 733.75 236 724.75L24 574.75C15 567.75 9 555.75 9 542.75Z" stroke="#0D2846" stroke-width="18" stroke-linecap="round" stroke-linejoin="round"/>
<path d="M10 313.75L54 343.75C70 354.75 91 354.75 107 343.75L293 213.75C318 196.75 350 196.75 375 214.75L494 301.75C506 310.75 514 325.75 514 341.75V459.75C514 475.75 473 483.75 459 492.75" stroke="#0D2846" stroke-width="18" stroke-linecap="round" stroke-linejoin="round"/>
<path d="M177 680.75V435.75C177 421.75 184 408.75 196 400.75L305 321.75C323 308.75 347 308.75 365 322.75L436 378.75C450 389.75 459 406.75 459 424.75V492.75L327 571.75C272 604.75 239 640.75 239 676.75V721.75" stroke="#0D2846" stroke-width="18" stroke-linecap="round" stroke-linejoin="round"/>
</svg>
